<svg xmlns="http://www.w3.org/2000/svg" viewBox="0 0 51.24 32.35"><defs><style>.cls-1{fill:none;}.cls-2{fill:#fff;}.cls-3{fill:#b4b4b4;}.cls-4{fill:#465ffa;}.cls-5{fill:#a5a5a5;}.cls-6{fill:#969696;}</style></defs><title>Element 18</title><g id="Ebene_2" data-name="Ebene 2"><g id="Ebene_3" data-name="Ebene 3"><polygon class="cls-1" points="4 5.53 4 24.82 14.72 11.96 4 5.53"/><path class="cls-1" d="M26.65,17.89h0a2,2,0,0,1-.34.14l-.15.06a2,2,0,0,1-.43.06h-.15a2,2,0,0,1-.43-.06L25,18a2,2,0,0,1-.34-.14h0L18.19,14,6.27,28.35H45L33.06,14Z"/><polygon class="cls-1" points="42.02 4 9.22 4 25.62 13.84 42.02 4"/><polygon class="cls-1" points="47.24 24.82 47.24 5.53 36.53 11.96 47.24 24.82"/><path class="cls-2" d="M51.22,2.27c0,.06,0,.12,0,.17s0,.13-.06.19,0,.12-.06.18S51,2.93,51,3l-.09.16-.13.15-.13.14-.14.12-.17.13,0,0-3,1.82V24.82l3.54,4.24.05.08.12.18.09.16.08.19c0,.06,0,.12.06.18s0,.12,0,.19a2,2,0,0,1,0,.21s0,.06,0,.1V2s0,0,0,0A2,2,0,0,1,51.22,2.27Z"/><path class="cls-3" d="M0,30c0-.06,0-.13,0-.19s0-.12.06-.18l.08-.19.09-.16.12-.18.05-.08L4,24.82V5.53L1,3.71l0,0L.76,3.56.62,3.44.49,3.3.36,3.14.27,3c0-.06-.07-.11-.09-.17s0-.12-.06-.18,0-.12-.06-.19,0-.12,0-.18A2,2,0,0,1,0,2S0,2,0,2V30.35s0-.06,0-.1A2,2,0,0,1,0,30Z"/><path class="cls-2" d="M48.74,32.27a2,2,0,0,1-.3-.1l-.12-.07L48.08,32l-.12-.1-.2-.19-.05-.05L45,28.35H6.27L3.54,31.63l-.05.05-.2.19-.12.1-.23.14-.12.07a2,2,0,0,1-.3.1l-.09,0a2,2,0,0,1-.42,0H49.24a2,2,0,0,1-.42,0Z"/><path class="cls-4" d="M48.08,32l.23.14Z"/><path class="cls-4" d="M51.18,29.85c0,.06,0,.13,0,.19S51.19,29.92,51.18,29.85Z"/><path class="cls-4" d="M48.44,32.17a2,2,0,0,0,.3.1A2,2,0,0,1,48.44,32.17Z"/><path class="cls-4" d="M51.24,30.43s0-.06,0-.09,0-.06,0-.1S51.24,30.37,51.24,30.43Z"/><path class="cls-4" d="M49.24,32.35h0a2,2,0,0,1-.42,0A2,2,0,0,0,49.24,32.35Z"/><path class="cls-4" d="M48,31.87l-.2-.19Z"/><path class="cls-4" d="M50.44,31.94l-.14.1Z"/><path class="cls-4" d="M51,31.36l-.11.17Z"/><path class="cls-4" d="M50.73,31.67l-.15.15Z"/><path class="cls-4" d="M51.12,31c0,.06,0,.12-.07.18A2,2,0,0,0,51.12,31Z"/><path class="cls-4" d="M51.21,30.64c0,.06,0,.13,0,.19S51.21,30.7,51.21,30.64Z"/><path class="cls-4" d="M51,29.48l.08.19Z"/><path class="cls-4" d="M49.75,32.28l-.13,0Z"/><path class="cls-4" d="M50.83,29.14l.12.18Z"/><path class="cls-4" d="M50.11,32.14l-.14.07Z"/><path class="cls-4" d="M.2,29.48l-.08.19Z"/><path class="cls-4" d="M3.48,31.68l-.2.19Z"/><path class="cls-4" d="M.07,29.85c0,.06,0,.12,0,.19S.05,29.92.07,29.85Z"/><path class="cls-4" d="M2.81,32.17a2,2,0,0,1-.3.1A2,2,0,0,0,2.81,32.17Z"/><path class="cls-4" d="M.41,29.14l-.12.18Z"/><path class="cls-4" d="M3.16,32l-.23.14Z"/><path class="cls-4" d="M.39,31.53l-.11-.17Z"/><path class="cls-4" d="M.66,31.82l-.15-.15Z"/><path class="cls-4" d="M.19,31.19c0-.06-.05-.12-.07-.18A2,2,0,0,0,.19,31.19Z"/><path class="cls-4" d="M1.63,32.31l-.13,0Z"/><path class="cls-4" d="M.06,30.83c0-.06,0-.12,0-.19S0,30.77.06,30.83Z"/><path class="cls-4" d="M1.27,32.21l-.14-.07Z"/><path class="cls-4" d="M.95,32l-.14-.1Z"/><path class="cls-4" d="M0,30.35s0,.06,0,.09,0-.12,0-.19S0,30.31,0,30.35Z"/><path class="cls-4" d="M2,32.35H2a2,2,0,0,0,.42,0A2,2,0,0,1,2,32.35Z"/><path class="cls-3" d="M2.34,0l.19,0,.18.06.2.09L3,.29,9.22,4H42L48.21.29l.11-.05.2-.09.18-.06.2,0,.21,0h-47Z"/><path class="cls-4" d="M50.75,3.3l-.13.14Z"/><path class="cls-4" d="M51,3l-.09.16Z"/><path class="cls-4" d="M51.22,2.27c0,.06,0,.12,0,.17S51.21,2.33,51.22,2.27Z"/><path class="cls-4" d="M50.49,3.56l-.17.13Z"/><path class="cls-4" d="M51.13,2.63c0,.06,0,.12-.06.18S51.11,2.69,51.13,2.63Z"/><path class="cls-4" d="M48.71.08l.2,0Z"/><path class="cls-4" d="M51.24,2s0,0,0,0,0-.08,0-.12S51.24,2,51.24,2Z"/><path class="cls-4" d="M49.3,0h0Z"/><path class="cls-4" d="M48.33.23l.2-.09Z"/><path class="cls-4" d="M51,1.08a2,2,0,0,1,.09.2A2,2,0,0,0,51,1.08Z"/><path class="cls-4" d="M50.54.49l.15.13Z"/><path class="cls-4" d="M50.22.26l.17.1Z"/><path class="cls-4" d="M50.8.76l.13.18Z"/><path class="cls-4" d="M49.87.11l.19.07Z"/><path class="cls-4" d="M49.5,0l.19,0Z"/><path class="cls-4" d="M51.16,1.47c0,.06,0,.12,0,.19S51.18,1.53,51.16,1.47Z"/><path class="cls-4" d="M.36,3.14.27,3Z"/><path class="cls-4" d="M.18,2.81c0-.06,0-.12-.06-.18S.15,2.75.18,2.81Z"/><path class="cls-4" d="M.93,3.68.76,3.56Z"/><path class="cls-4" d="M.05,2.44c0-.06,0-.12,0-.18S0,2.39.05,2.44Z"/><path class="cls-4" d="M2.92.23,2.72.14Z"/><path class="cls-4" d="M2.53.08,2.34,0Z"/><path class="cls-4" d="M.14,1.28a2.05,2.05,0,0,1,.09-.2A2,2,0,0,0,.14,1.28Z"/><path class="cls-4" d="M.32.93.44.76Z"/><path class="cls-4" d="M0,1.66c0-.06,0-.13,0-.19S0,1.59,0,1.66Z"/><path class="cls-4" d="M0,1.88S0,2,0,2,0,2,0,2,0,1.93,0,1.88Z"/><path class="cls-4" d="M.86.36,1,.28Z"/><path class="cls-4" d="M1.19.17,1.36.12Z"/><path class="cls-4" d="M.56.61.69.5Z"/><path class="cls-4" d="M2,0H2Z"/><path class="cls-4" d="M.62,3.44.49,3.3Z"/><path class="cls-4" d="M1.56.05l.17,0Z"/><path class="cls-4" d="M25.62,18.17h0Z"/><path class="cls-2" d="M16.21,10.17a2,2,0,0,1,3.07,2.56L18.19,14l6.41,3.84h0a2,2,0,0,1,0-3.44l1-.62L9.22,4H4V5.53L14.72,12Z"/><path class="cls-4" d="M1,.28l.19-.1Z"/><path class="cls-4" d="M26.13,18.11a2,2,0,0,1-.43.06A2,2,0,0,0,26.13,18.11Z"/><path class="cls-4" d="M26.62,17.9a2,2,0,0,1-.34.14A2,2,0,0,0,26.62,17.9Z"/><path class="cls-4" d="M25.11,18.11,25,18Z"/><path class="cls-4" d="M.69.5.86.36Z"/><path class="cls-4" d="M.08,1.47c0-.06,0-.12.06-.18S.1,1.41.08,1.47Z"/><path class="cls-4" d="M1.36.12l.2-.06Z"/><path class="cls-4" d="M.44.76.56.61Z"/><path class="cls-4" d="M.29,1l-.05.11L.32.93Z"/><path class="cls-4" d="M0,1.88a2,2,0,0,1,0-.22A2,2,0,0,0,0,1.88Z"/><path class="cls-4" d="M1.72,0,2,0Z"/><path class="cls-4" d="M.27,3c0-.06-.07-.11-.09-.17S.24,2.93.27,3Z"/><path class="cls-4" d="M.11,2.63c0-.06,0-.12-.06-.19S.09,2.57.11,2.63Z"/><path class="cls-4" d="M.76,3.56.62,3.44Z"/><path class="cls-4" d="M.49,3.3.36,3.14Z"/><path class="cls-5" d="M2,4A2,2,0,0,1,.93,3.68l0,0L4,5.53V4Z"/><path class="cls-4" d="M0,2.27A2,2,0,0,1,0,2,2,2,0,0,0,0,2.27Z"/><path class="cls-4" d="M2.34,0,2.12,0Z"/><path class="cls-5" d="M3,.29,2.92.23A2,2,0,0,1,4,2V4H9.22Z"/><path class="cls-4" d="M2.72.14,2.53.08Z"/><path class="cls-6" d="M0,2.27c0,.06,0,.12,0,.18s0,.13.06.19,0,.12.06.18.06.12.09.17l.09.16.13.15.13.14.14.12.17.13A2,2,0,0,0,2,4H4V2A2,2,0,0,0,2.92.23L2.72.14,2.53.08,2.34,0,2.12,0H2L1.72,0l-.17,0-.2.06L1.19.17,1,.28.86.36.69.5.56.61.44.76.32.93l-.08.15a2.05,2.05,0,0,0-.09.2c0,.06,0,.12-.06.18s0,.13,0,.19a2,2,0,0,0,0,.22C0,1.93,0,2,0,2A2,2,0,0,0,0,2.27Z"/><path class="cls-4" d="M51.21,1.66a2,2,0,0,1,0,.22A2,2,0,0,0,51.21,1.66Z"/><path class="cls-4" d="M50.68.62l.11.14Z"/><path class="cls-4" d="M51,1l0,0,.08.15S51,1,51,1Z"/><path class="cls-4" d="M50.39.36l.15.12Z"/><path class="cls-3" d="M42,4l-16.4,9.84,1,.62a2,2,0,0,1,0,3.44h0L33.06,14,32,12.73A2,2,0,1,1,35,10.17L36.53,12,47.24,5.53V4Z"/><path class="cls-4" d="M51.11,1.28c0,.06,0,.12.06.19A1.94,1.94,0,0,0,51.11,1.28Z"/><path class="cls-4" d="M25,18a2,2,0,0,1-.34-.14A2,2,0,0,0,25,18Z"/><path class="cls-4" d="M25.62,18.17h0Z"/><path class="cls-4" d="M49.69.05l.17.05Z"/><path class="cls-4" d="M25.55,18.16a2,2,0,0,1-.43-.06A2,2,0,0,0,25.55,18.16Z"/><path class="cls-4" d="M49.3,0l.21,0Z"/><path class="cls-4" d="M50.06.18l.16.09Z"/><path class="cls-4" d="M26.28,18l-.15.06Z"/><path class="cls-4" d="M51.19,2.44a2,2,0,0,1-.06.19C51.15,2.57,51.18,2.51,51.19,2.44Z"/><path class="cls-5" d="M47.24,4V5.53l3-1.82,0,0A2,2,0,0,1,49.24,4Z"/><path class="cls-4" d="M51.07,2.81c0,.06-.06.12-.09.17S51,2.87,51.07,2.81Z"/><path class="cls-4" d="M50.63,3.44l-.14.12Z"/><path class="cls-4" d="M50.88,3.14l-.13.15Z"/><path class="cls-4" d="M51.24,2a2,2,0,0,1,0,.22A2,2,0,0,0,51.24,2Z"/><path class="cls-4" d="M48.9,0l.21,0Z"/><path class="cls-4" d="M48.53.14l.18-.06Z"/><path class="cls-5" d="M47.24,2A2,2,0,0,1,48.33.23l-.11.05L42,4h5.22Z"/><path class="cls-6" d="M48.9,0l-.2,0-.18.06-.2.09A2,2,0,0,0,47.24,2V4h2a2,2,0,0,0,1.07-.32l.17-.13.14-.12.13-.14.13-.15L51,3c0-.06.07-.11.09-.17s0-.12.06-.18a2,2,0,0,0,.06-.19c0-.06,0-.12,0-.17a2,2,0,0,0,0-.22c0-.06,0-.11,0-.17a2,2,0,0,0,0-.22c0-.06,0-.13,0-.19s0-.13-.06-.19a2,2,0,0,0-.09-.2L50.93.93,50.8.76,50.68.62,50.54.49,50.39.36l-.17-.1L50.06.18,49.87.11,49.69.05,49.5,0,49.3,0h-.18Z"/><path class="cls-6" d="M23.91,17.2A1.87,1.87,0,0,0,25,18l.15.06a2,2,0,0,0,.43.06h.15a2,2,0,0,0,.43-.06l.15-.06a1.87,1.87,0,0,0,1.05-.84,2,2,0,0,0-.69-2.74l-1-.62-1,.62A2,2,0,0,0,23.91,17.2Z"/><path class="cls-4" d="M.12,31c0-.06,0-.12-.06-.18S.1,31,.12,31Z"/><path class="cls-4" d="M.28,31.36l-.09-.17Z"/><path class="cls-4" d="M1.13,32.14.95,32Z"/><path class="cls-4" d="M1.5,32.28l-.22-.07Z"/><path class="cls-4" d="M.72,31.88l.09.06-.15-.12Z"/><path class="cls-4" d="M0,30.64a2,2,0,0,1,0-.21A2,2,0,0,0,0,30.64Z"/><path class="cls-4" d="M.51,31.67l-.12-.14Z"/><path class="cls-4" d="M2,32.35H2a2,2,0,0,1-.37,0A2,2,0,0,0,2,32.35Z"/><polygon class="cls-2" points="14.72 11.96 4 24.82 4 28.35 6.27 28.35 18.19 14.04 14.72 11.96"/><path class="cls-4" d="M.13,29.67c0,.06,0,.12-.06.18S.1,29.73.13,29.67Z"/><path class="cls-4" d="M0,30a2,2,0,0,0,0,.21A2,2,0,0,1,0,30Z"/><path class="cls-4" d="M.29,29.32l-.09.16Z"/><path class="cls-5" d="M.46,29.07l-.05.08A2,2,0,0,1,2,28.35H4V24.82Z"/><path class="cls-4" d="M3.29,31.87l-.12.1Z"/><path class="cls-5" d="M4,30.35a2,2,0,0,1-.52,1.33l.05-.05,2.73-3.28H4Z"/><path class="cls-4" d="M2.93,32.11l-.12.07Z"/><path class="cls-4" d="M2.51,32.27l-.09,0Z"/><path class="cls-6" d="M2.51,32.27a2,2,0,0,0,.3-.1l.12-.07L3.16,32l.12-.1.2-.19A2,2,0,0,0,4,30.35v-2H2a2,2,0,0,0-1.59.8l-.12.18-.09.16-.08.19c0,.06,0,.12-.06.18S0,30,0,30a2,2,0,0,0,0,.21c0,.06,0,.12,0,.19a2,2,0,0,0,0,.21c0,.06,0,.13,0,.19s0,.12.06.18,0,.12.07.18l.09.17.11.17.12.14.15.15.15.12.14.1.18.1.14.07.22.07.13,0a1.92,1.92,0,0,0,.79,0Z"/><path class="cls-6" d="M19,9.91a2,2,0,0,0-2.82.26L14.72,12,18.19,14l1.1-1.32A2,2,0,0,0,19,9.91Z"/><path class="cls-4" d="M50.85,31.53l-.12.14Z"/><path class="cls-4" d="M51,31.19l-.09.17Z"/><path class="cls-4" d="M51.18,30.83c0,.06,0,.12-.06.18S51.16,30.89,51.18,30.83Z"/><path class="cls-4" d="M51.24,30.43a2,2,0,0,1,0,.21A2,2,0,0,0,51.24,30.43Z"/><path class="cls-4" d="M49.25,32.35a2,2,0,0,0,.37,0,2,2,0,0,1-.37,0Z"/><path class="cls-4" d="M50.52,31.88l.06-.06-.15.12Z"/><path class="cls-4" d="M50,32.21l-.22.07Z"/><polygon class="cls-3" points="33.06 14.04 44.97 28.35 47.24 28.35 47.24 24.82 36.53 11.96 33.06 14.04"/><path class="cls-4" d="M50.3,32l-.18.1Z"/><path class="cls-4" d="M51.12,29.67c0,.06,0,.12.06.18S51.14,29.73,51.12,29.67Z"/><path class="cls-4" d="M51,29.32l.09.16Z"/><path class="cls-5" d="M49.24,28.35a2,2,0,0,1,1.59.8l-.05-.08-3.54-4.24v3.52Z"/><path class="cls-4" d="M51.21,30a2,2,0,0,1,0,.21A2,2,0,0,0,51.21,30Z"/><path class="cls-5" d="M47.71,31.63l.05.05a2,2,0,0,1-.52-1.33v-2H45Z"/><path class="cls-4" d="M48,31.87l.12.1Z"/><path class="cls-4" d="M48.74,32.27l.09,0Z"/><path class="cls-4" d="M48.31,32.11l.12.07Z"/><path class="cls-6" d="M51.21,30c0-.06,0-.13,0-.19s0-.12-.06-.18L51,29.48,51,29.32l-.12-.18a2,2,0,0,0-1.59-.8h-2v2a2,2,0,0,0,.52,1.33l.2.19.12.1.23.14.12.07a2,2,0,0,0,.3.1l.09,0a1.92,1.92,0,0,0,.79,0l.13,0,.22-.07.14-.07.18-.1.14-.1.15-.12.15-.15.12-.14.11-.17.09-.17c0-.06.05-.12.07-.18s0-.12.06-.18,0-.12,0-.19a2,2,0,0,0,0-.21c0-.06,0-.12,0-.19A2,2,0,0,0,51.21,30Z"/><path class="cls-6" d="M35,10.17A2,2,0,1,0,32,12.73L33.06,14,36.53,12Z"/></g></g></svg>