<svg xmlns="http://www.w3.org/2000/svg" viewBox="0 0 51.24 38.29"><defs><style>.cls-1{fill:none;}.cls-2{fill:#465ffa;}.cls-3{fill:#b4b4b4;}.cls-4{fill:#fff;}.cls-5{fill:#969696;}</style></defs><title>Element 22</title><g id="Ebene_2" data-name="Ebene 2"><g id="Ebene_3" data-name="Ebene 3"><path class="cls-1" d="M4.07,23.92C4,24.48,4,25,4,25.62a21.54,21.54,0,0,0,.91,6.24A25.56,25.56,0,0,1,9.47,27,21.61,21.61,0,0,0,4.9,24.25C4.63,24.13,4.35,24,4.07,23.92Z"/><path class="cls-1" d="M12,8.86a21.67,21.67,0,0,0-7.2,11c.59.21,1.18.45,1.75.71a25.54,25.54,0,0,1,6.37,4.09,25.42,25.42,0,0,1,5.17-2.24,36.45,36.45,0,0,0-2.26-6.94A36.34,36.34,0,0,0,12,8.86Z"/><path class="cls-1" d="M36,6.64a21.61,21.61,0,0,0-20.68,0,40.38,40.38,0,0,1,4.17,7.26A40.4,40.4,0,0,1,22,21.57a25.83,25.83,0,0,1,7.34,0A40,40,0,0,1,36,6.64Z"/><path class="cls-1" d="M46.46,19.9a21.46,21.46,0,0,0-7.17-11,36,36,0,0,0-6.08,13.58,25.41,25.41,0,0,1,5.13,2.23,25.54,25.54,0,0,1,6.37-4.09C45.29,20.35,45.87,20.11,46.46,19.9Z"/><path class="cls-1" d="M41.78,27a25.55,25.55,0,0,1,4.56,4.83,21.53,21.53,0,0,0,.91-6.24c0-.57,0-1.14-.07-1.7-.27.11-.55.21-.82.33A21.61,21.61,0,0,0,41.78,27Z"/><path class="cls-2" d="M47.62,38.07l.11-.07a2,2,0,0,1-.45.19A2,2,0,0,0,47.62,38.07Z"/><path class="cls-2" d="M45.32,37.71l-.1-.09Z"/><path class="cls-2" d="M46.23,38.22,46,38.14Z"/><path class="cls-2" d="M45.74,38l-.15-.09Z"/><path class="cls-2" d="M4.15,38.23l-.19,0Z"/><path class="cls-2" d="M5.66,37.93,5.47,38Z"/><path class="cls-2" d="M6.16,37.43l-.08.12Z"/><path class="cls-2" d="M5.93,37.7l-.13.12Z"/><path class="cls-2" d="M3.63,38.06l.13.05L3.6,38Z"/><path class="cls-2" d="M4.92,38.23l-.19,0Z"/><path class="cls-2" d="M46.52,38.26l.19,0a2,2,0,0,0,.52-.08,2,2,0,0,1-.53.07Z"/><path class="cls-2" d="M2.91,37.43a2,2,0,0,1-.14-.21A2,2,0,0,0,2.91,37.43Z"/><path class="cls-2" d="M3.41,37.93l-.15-.1Z"/><path class="cls-3" d="M44.92,35.38a21.52,21.52,0,0,0,1.41-3.52A25.55,25.55,0,0,0,41.78,27,21.5,21.5,0,0,0,40,28.6a2,2,0,0,1-2.48.26,21.62,21.62,0,0,1,7.43,8.33v0A2,2,0,0,1,44.92,35.38Z"/><path class="cls-3" d="M37.17,25.75c.38-.37.78-.72,1.18-1.06a25.41,25.41,0,0,0-5.13-2.23c-.13.59-.25,1.18-.35,1.77a2,2,0,0,1-2,1.67l-.33,0a2,2,0,0,1-1.64-2.3c.11-.67.25-1.33.4-2a25.83,25.83,0,0,0-7.34,0c.15.66.29,1.33.4,2a2,2,0,0,1-1.64,2.3l-.33,0a2,2,0,0,1-2-1.67c-.1-.59-.22-1.18-.35-1.77a25.42,25.42,0,0,0-5.17,2.24c.4.35.8.69,1.18,1.06a2,2,0,1,1-2.81,2.85A21.52,21.52,0,0,0,9.47,27a25.56,25.56,0,0,0-4.56,4.83,21.53,21.53,0,0,0,1.41,3.52,2,2,0,0,1,0,1.83l0,0a21.64,21.64,0,0,1,31.12-8.36,2,2,0,0,1-.27-3.07Z"/><path class="cls-2" d="M48.49,37.19a2,2,0,0,1-.32.46A2,2,0,0,0,48.49,37.19Z"/><path class="cls-2" d="M4.53,38.27h0Z"/><path class="cls-2" d="M5.31,38.11l-.2.08Z"/><path class="cls-2" d="M3.14,37.7,3,37.54Z"/><path class="cls-2" d="M48.16,37.66a2,2,0,0,1-.39.32A2,2,0,0,0,48.16,37.66Z"/><path class="cls-2" d="M47.76,38l0,0Z"/><path class="cls-2" d="M5.44,38.06l0,0-.16.07Z"/><path class="cls-2" d="M5.8,37.82l-.15.1Z"/><path class="cls-2" d="M6.08,37.54l-.15.16Z"/><path class="cls-2" d="M47.27,38.2h0Z"/><path class="cls-2" d="M46.52,38.26a2,2,0,0,1-.3,0A2,2,0,0,0,46.52,38.26Z"/><path class="cls-2" d="M48.17,37.65h0Z"/><path class="cls-2" d="M45.23,37.62a2,2,0,0,1-.29-.41A2,2,0,0,0,45.23,37.62Z"/><path class="cls-2" d="M45.6,37.93a2,2,0,0,1-.27-.22A2,2,0,0,0,45.6,37.93Z"/><path class="cls-2" d="M6.3,37.21a2,2,0,0,1-.14.22A2,2,0,0,0,6.3,37.21Z"/><path class="cls-2" d="M45.8,38.07l.2.07a2,2,0,0,1-.26-.11Z"/><path class="cls-2" d="M4.34,38.27l-.19,0Z"/><path class="cls-2" d="M3,37.54l-.08-.12Z"/><path class="cls-4" d="M49.38,23.16a21.94,21.94,0,0,0-2.21.76c0,.56.07,1.13.07,1.7a21.53,21.53,0,0,1-.91,6.24,26,26,0,0,1,2.16,3.52,2,2,0,0,1,0,1.8h0A25.52,25.52,0,0,0,50.82,21,2,2,0,0,1,49.38,23.16Z"/><path class="cls-2" d="M4,38.19l-.2-.08Z"/><path class="cls-2" d="M4.73,38.27h0Z"/><path class="cls-2" d="M3.27,37.82l-.13-.12Z"/><path class="cls-2" d="M3.6,38l-.18-.12Z"/><path class="cls-4" d="M2.75,35.38a26,26,0,0,1,2.16-3.52A21.54,21.54,0,0,1,4,25.62c0-.57,0-1.14.07-1.7a21.68,21.68,0,0,0-2.21-.76A2,2,0,0,1,.41,21.11,25.64,25.64,0,0,0,0,25.62,25.36,25.36,0,0,0,2.75,37.18l0,0A2,2,0,0,1,2.75,35.38Z"/><path class="cls-2" d="M5.11,38.19l-.19,0Z"/><path class="cls-4" d="M13.92,4.81c.48.59.93,1.2,1.38,1.82A21.61,21.61,0,0,1,36,6.64c.44-.61.89-1.22,1.37-1.81a2,2,0,1,1,3.11,2.52c-.4.5-.78,1-1.16,1.53a21.46,21.46,0,0,1,7.17,11q.91-.33,1.83-.59a2,2,0,0,1,2.43,1.3A25.59,25.59,0,0,0,11.46,4.28,2,2,0,0,1,13.92,4.81Z"/><path class="cls-4" d="M2.94,19.31q.92.26,1.84.59a21.67,21.67,0,0,1,7.2-11c-.38-.52-.76-1-1.17-1.54a2,2,0,0,1,.25-2.77A25.67,25.67,0,0,0,.48,20.67,2,2,0,0,1,2.94,19.31Z"/><path class="cls-5" d="M6.32,35.38a21.53,21.53,0,0,1-1.41-3.52,26,26,0,0,0-2.16,3.52,1.94,1.94,0,0,0,.16,2l.08.12.15.16.13.12.15.1L3.6,38l.16.07.2.08.19,0,.19,0h.39l.19,0,.19,0,.2-.08L5.47,38l.18-.12.15-.1.13-.12.15-.16.08-.12a1.94,1.94,0,0,0,.16-2Z"/><path class="cls-5" d="M48.5,35.38a26,26,0,0,0-2.16-3.52,21.52,21.52,0,0,1-1.41,3.52,2,2,0,0,0,.3,2.24l.1.09a2,2,0,0,0,.27.22l.15.09a2,2,0,0,0,.26.11l.22.08a2,2,0,0,0,.3,0l.18,0a2,2,0,0,0,.53-.07h0a2,2,0,0,0,.45-.19l0,0a2,2,0,0,0,.39-.32h0a2,2,0,0,0,.33-2.26Z"/><path class="cls-3" d="M39.29,8.88A21.56,21.56,0,0,0,36,6.64a40,40,0,0,0-6.67,14.94,25.6,25.6,0,0,1,3.9.88A36,36,0,0,1,39.29,8.88Z"/><path class="cls-5" d="M28.91,23.58a2,2,0,0,0,1.64,2.3l.33,0a2,2,0,0,0,2-1.67c.1-.59.22-1.18.35-1.77a25.6,25.6,0,0,0-3.9-.88C29.16,22.24,29,22.91,28.91,23.58Z"/><path class="cls-5" d="M40.46,7.34a2,2,0,1,0-3.11-2.52c-.48.59-.93,1.2-1.37,1.81a21.56,21.56,0,0,1,3.32,2.24C39.67,8.36,40.05,7.84,40.46,7.34Z"/><path class="cls-2" d="M11.11,4.51l0,0,.4-.27A2,2,0,0,0,11.11,4.51Z"/><path class="cls-3" d="M15.3,6.63A21.71,21.71,0,0,0,12,8.86a36.34,36.34,0,0,1,3.83,6.64,36.45,36.45,0,0,1,2.26,6.94,25.59,25.59,0,0,1,3.9-.88,40.4,40.4,0,0,0-2.5-7.68A40.38,40.38,0,0,0,15.3,6.63Z"/><path class="cls-5" d="M18.42,24.22a2,2,0,0,0,2,1.67l.33,0a2,2,0,0,0,1.64-2.3c-.11-.67-.25-1.33-.4-2a25.59,25.59,0,0,0-3.9.88C18.2,23,18.32,23.63,18.42,24.22Z"/><path class="cls-5" d="M10.81,7.33c.41.5.79,1,1.17,1.54A21.71,21.71,0,0,1,15.3,6.63c-.45-.62-.9-1.23-1.38-1.82a2,2,0,0,0-2.46-.52l-.4.27A2,2,0,0,0,10.81,7.33Z"/><path class="cls-2" d="M.47,20.7a2,2,0,0,0-.07.41c0-.15,0-.29.08-.44Z"/><path class="cls-4" d="M4.78,19.9a21.48,21.48,0,0,0-.7,4c.28.11.55.21.82.33A21.61,21.61,0,0,1,9.47,27a25.42,25.42,0,0,1,3.43-2.34A25.54,25.54,0,0,0,6.53,20.6C6,20.34,5.37,20.11,4.78,19.9Z"/><path class="cls-5" d="M11.27,28.6a2,2,0,0,0,2.81-2.85c-.38-.37-.78-.71-1.18-1.06A25.42,25.42,0,0,0,9.47,27,21.52,21.52,0,0,1,11.27,28.6Z"/><path class="cls-5" d="M1.87,23.16a21.68,21.68,0,0,1,2.21.76,21.48,21.48,0,0,1,.7-4q-.91-.33-1.84-.59A2,2,0,0,0,.48,20.67c0,.14-.05.29-.08.44A2,2,0,0,0,1.87,23.16Z"/><path class="cls-3" d="M44.72,20.6a25.54,25.54,0,0,0-6.37,4.09A25.38,25.38,0,0,1,41.78,27a21.61,21.61,0,0,1,4.57-2.78c.27-.12.55-.22.82-.33a21.63,21.63,0,0,0-.71-4C45.87,20.11,45.29,20.35,44.72,20.6Z"/><path class="cls-2" d="M50.76,20.7l0-.09c0,.14.07.27.09.41A2,2,0,0,0,50.76,20.7Z"/><path class="cls-2" d="M37.49,28.86l-.06,0Z"/><path class="cls-5" d="M40,28.6A21.5,21.5,0,0,1,41.78,27a25.38,25.38,0,0,0-3.43-2.34c-.4.35-.8.69-1.18,1.06a2,2,0,0,0,.27,3.07l.06,0A2,2,0,0,0,40,28.6Z"/><path class="cls-5" d="M48.3,19.31q-.92.26-1.83.59a21.63,21.63,0,0,1,.71,4,21.94,21.94,0,0,1,2.21-.76A2,2,0,0,0,50.82,21c0-.14-.06-.27-.09-.41A2,2,0,0,0,48.3,19.31Z"/></g></g></svg>