<svg xmlns="http://www.w3.org/2000/svg" viewBox="0 0 38.9 46.66"><defs><style>.cls-1{fill:#b4b4b4;}.cls-2{fill:#fff;}.cls-3{fill:#969696;}</style></defs><title>Element 21</title><g id="Ebene_2" data-name="Ebene 2"><g id="Ebene_3" data-name="Ebene 3"><path class="cls-1" d="M22.62,7.55a2,2,0,0,1-.83-2.7L9.54,28a2,2,0,0,0-.08.21c0-.07.05-.14.09-.21a2,2,0,0,1,3.54,1.87h0L25.32,6.71A2,2,0,0,1,22.62,7.55Z"/><path class="cls-2" d="M18.51,30.48a2,2,0,0,1,.83,2.7h0L29.43,14.09a2,2,0,0,0-3.54-1.87L15.8,31.31h0A2,2,0,0,1,18.51,30.48Z"/><path class="cls-1" d="M36.07,14.4a2,2,0,0,1-1.77-2.93L20.24,38.07h0a2,2,0,1,1,3.54,1.87h0L37.84,13.33A2,2,0,0,1,36.07,14.4Z"/><path class="cls-2" d="M4.16,27.3A2,2,0,0,1,5,30L18.9,3.71a2,2,0,0,0-3.54-1.87L1.46,28.14A2,2,0,0,1,4.16,27.3Z"/><path class="cls-2" d="M11.31,30.94a2,2,0,0,1-1.85-2.73,5.52,5.52,0,0,0,5,7.92,5.55,5.55,0,0,0,4.9-2.94,2,2,0,0,1-3.53-1.88A1.54,1.54,0,0,1,13,31a1.53,1.53,0,0,1,.11-1.17A2,2,0,0,1,11.31,30.94Z"/><path class="cls-3" d="M12.25,27.17a2,2,0,0,0-2.7.83c0,.07-.05.14-.09.21a2,2,0,0,0,3.62,1.66h0A2,2,0,0,0,12.25,27.17Z"/><path class="cls-3" d="M16.64,34a2,2,0,0,0,2.7-.82h0a2,2,0,1,0-3.54-1.87h0A2,2,0,0,0,16.64,34Z"/><path class="cls-2" d="M22,41a2,2,0,0,1-1.77-2.93A8.62,8.62,0,0,1,5,30a2,2,0,0,1-3.54-1.87,12.62,12.62,0,0,0,22.31,11.8A2,2,0,0,1,22,41Z"/><path class="cls-3" d="M22.95,37.23a2,2,0,0,0-2.7.83h0a2,2,0,0,0,3.53,1.87h0A2,2,0,0,0,22.95,37.23Z"/><path class="cls-3" d="M2.3,30.84a2,2,0,1,0-.83-2.7A2,2,0,0,0,2.3,30.84Z"/><path class="cls-1" d="M34.06,1.06A9.08,9.08,0,0,0,21.79,4.84a2,2,0,0,1,3.54,1.87,5.08,5.08,0,1,1,9,4.75,2,2,0,0,1,3.54,1.87A9.09,9.09,0,0,0,34.06,1.06Z"/><circle class="cls-3" cx="23.56" cy="5.78" r="2" transform="translate(7.44 23.9) rotate(-62.15)"/><path class="cls-3" d="M37,10.63a2,2,0,1,0,.83,2.7A2,2,0,0,0,37,10.63Z"/></g></g></svg>