<svg xmlns="http://www.w3.org/2000/svg" viewBox="0 0 41.79 41.79"><defs><style>.cls-1{fill:none;}.cls-2{fill:#fff;}.cls-3{fill:#b4b4b4;}.cls-4{fill:#969696;}</style></defs><title>Element 12</title><g id="Ebene_2" data-name="Ebene 2"><g id="Ebene_3" data-name="Ebene 3"><path class="cls-1" d="M20.9,4a16.9,16.9,0,1,0,16.9,16.9A16.92,16.92,0,0,0,20.9,4Zm9.45,18.9H20.9a2,2,0,0,1-2-2V11.45a2,2,0,1,1,4,0V18.9h7.45a2,2,0,1,1,0,4Z"/><path class="cls-2" d="M2,18.9a2,2,0,0,1,2,2,16.9,16.9,0,0,1,33.79,0,2,2,0,1,1,4,0A20.9,20.9,0,0,0,0,20.9,2,2,0,0,1,2,18.9Z"/><path class="cls-3" d="M20.9,18.9h2V11.45a2,2,0,1,0-4,0V20.9A2,2,0,0,1,20.9,18.9Z"/><path class="cls-2" d="M30.35,18.9H22.9v2a2,2,0,0,1-2,2h9.45a2,2,0,1,0,0-4Z"/><path class="cls-4" d="M22.9,20.9v-2h-2a2,2,0,1,0,2,2Z"/><path class="cls-3" d="M39.79,22.9a2,2,0,0,1-2-2A16.9,16.9,0,0,1,4,20.9a2,2,0,0,1-4,0,20.9,20.9,0,0,0,41.79,0A2,2,0,0,1,39.79,22.9Z"/><circle class="cls-4" cx="2" cy="20.9" r="2"/><circle class="cls-4" cx="39.79" cy="20.9" r="2"/></g></g></svg>