<svg xmlns="http://www.w3.org/2000/svg" viewBox="0 0 46.52 46.52"><defs><style>.cls-1{fill:none;}.cls-2{fill:#fff;}.cls-3{fill:#b4b4b4;}.cls-4{fill:#a5a5a5;}.cls-5{fill:#969696;}</style></defs><title>Element 17</title><g id="Ebene_2" data-name="Ebene 2"><g id="Ebene_3" data-name="Ebene 3"><circle class="cls-1" cx="39.79" cy="23.5" r="2.72"/><polygon class="cls-1" points="8.72 37.8 13.91 37.8 32.61 37.8 37.8 37.8 37.8 30.22 8.72 30.22 8.72 37.8"/><circle class="cls-1" cx="6.72" cy="23.5" r="2.72"/><path class="cls-1" d="M23.26,4A12.22,12.22,0,0,0,11.05,16.21v2.15a6.7,6.7,0,0,1,1.82,7.86H33.65a6.7,6.7,0,0,1,1.82-7.86V16.21A12.22,12.22,0,0,0,23.26,4Z"/><path class="cls-2" d="M8.72,29.92v.3H37.79v-.3a6.75,6.75,0,0,1-4.14-3.7H12.87A6.75,6.75,0,0,1,8.72,29.92Z"/><path class="cls-3" d="M32.61,37.79H13.91a2,2,0,0,1,2,2v2h14.7v-2A2,2,0,0,1,32.61,37.79Z"/><path class="cls-3" d="M37.79,39.79v-2H32.61a2,2,0,0,1,2,2v2h5.18A2,2,0,0,1,37.79,39.79Z"/><path class="cls-3" d="M13.91,37.79H8.72v2a2,2,0,0,1-2,2h5.18v-2A2,2,0,0,1,13.91,37.79Z"/><path class="cls-2" d="M6.72,37.79h2V30.22h-2a6.7,6.7,0,0,1-2-.3v9.88A2,2,0,0,1,6.72,37.79Z"/><path class="cls-4" d="M6.72,30.22h2v-.3A6.7,6.7,0,0,1,6.72,30.22Z"/><path class="cls-5" d="M8.72,39.79v-2h-2a2,2,0,1,0,2,2Z"/><path class="cls-3" d="M37.79,30.22v7.57h2a2,2,0,0,1,2,2V29.92a6.7,6.7,0,0,1-2,.3Z"/><path class="cls-4" d="M37.79,30.22h2a6.7,6.7,0,0,1-2-.3Z"/><path class="cls-5" d="M39.79,37.79h-2v2a2,2,0,1,0,2-2Z"/><path class="cls-3" d="M6.72,26.22A2.72,2.72,0,1,1,9.45,23.5a2.73,2.73,0,0,1-2.72,2.72h6.14a6.7,6.7,0,0,0-1.82-7.86v1a2,2,0,1,1-4,0v-2.6l-.33,0a6.72,6.72,0,0,0-2,13.15v-1.7A2,2,0,0,1,6.72,26.22Z"/><path class="cls-4" d="M8.72,28.22v1.7a6.75,6.75,0,0,0,4.14-3.7H6.72A2,2,0,0,1,8.72,28.22Z"/><path class="cls-4" d="M4.72,28.22v1.7a6.7,6.7,0,0,0,2,.3A2,2,0,0,1,4.72,28.22Z"/><path class="cls-5" d="M8.72,28.22a2,2,0,1,0-2,2,6.7,6.7,0,0,0,2-.3Z"/><path class="cls-2" d="M11.05,16.21a12.21,12.21,0,0,1,24.42,0v2.15a6.69,6.69,0,0,1,4-1.57v-.58a16.21,16.21,0,0,0-32.42,0v.58a6.69,6.69,0,0,1,4,1.57Z"/><path class="cls-5" d="M9.05,21.38a2,2,0,0,0,2-2v-1a6.69,6.69,0,0,0-4-1.57v2.6A2,2,0,0,0,9.05,21.38Z"/><path class="cls-2" d="M39.79,16.77l-.33,0v2.6a2,2,0,0,1-4,0v-1a6.7,6.7,0,0,0-1.82,7.86h6.14a2.72,2.72,0,1,1,2.72-2.72,2.73,2.73,0,0,1-2.72,2.72,2,2,0,0,1,2,2v1.7a6.72,6.72,0,0,0-2-13.15Z"/><path class="cls-4" d="M37.79,29.92v-1.7a2,2,0,0,1,2-2H33.65A6.75,6.75,0,0,0,37.79,29.92Z"/><path class="cls-4" d="M39.79,30.22a6.7,6.7,0,0,0,2-.3v-1.7A2,2,0,0,1,39.79,30.22Z"/><path class="cls-5" d="M37.79,28.22v1.7a6.7,6.7,0,0,0,2,.3,2,2,0,1,0-2-2Z"/><path class="cls-5" d="M35.47,19.38a2,2,0,0,0,4,0v-2.6a6.69,6.69,0,0,0-4,1.57Z"/><path class="cls-2" d="M30.61,44.52a2,2,0,1,0,4,0V41.79h-4Z"/><path class="cls-5" d="M32.61,37.79a2,2,0,0,0-2,2v2h4v-2A2,2,0,0,0,32.61,37.79Z"/><path class="cls-3" d="M11.91,44.52a2,2,0,0,0,4,0V41.79h-4Z"/><path class="cls-5" d="M13.91,37.79a2,2,0,0,0-2,2v2h4v-2A2,2,0,0,0,13.91,37.79Z"/></g></g></svg>