<svg xmlns="http://www.w3.org/2000/svg" viewBox="0 0 43.05 46.52"><defs><style>.cls-1{fill:none;}.cls-2{fill:#fff;}.cls-3{fill:#b4b4b4;}.cls-4{fill:#969696;}.cls-5{fill:#465ffa;}</style></defs><title>Element 27</title><g id="Ebene_2" data-name="Ebene 2"><g id="Ebene_3" data-name="Ebene 3"><path class="cls-1" d="M4,4V42.52H33.07V33.7l-3.7,3.7,0,0,0,0-.16.12-.13.1-.21.11-.14.07-.25.07-.12,0a2,2,0,0,1-.76,0l-.14,0-.24-.07L27,37.75l-.19-.11-.15-.12-.15-.12,0,0,0,0L21,31.55A2,2,0,1,1,24,28.81l4,4.31L33.07,28V4ZM9.8,9.45H27.28a2,2,0,0,1,0,4H9.8a2,2,0,0,1,0-4ZM27.28,22.9H9.8a2,2,0,1,1,0-4H27.28a2,2,0,0,1,0,4Z"/><path class="cls-2" d="M33.07,44.52v-2H4v2a2,2,0,0,1-2,2H35.07A2,2,0,0,1,33.07,44.52Z"/><path class="cls-3" d="M4,2V4H33.07V2a2,2,0,0,1,2-2H2A2,2,0,0,1,4,2Z"/><path class="cls-3" d="M2,42.52H4V4H2A2,2,0,0,1,0,2V44.52A2,2,0,0,1,2,42.52Z"/><path class="cls-4" d="M4,44.52v-2H2a2,2,0,1,0,2,2Z"/><path class="cls-4" d="M2,4H4V2A2,2,0,1,0,2,4Z"/><path class="cls-2" d="M33.07,42.52h2a2,2,0,0,1,2,2V29.7l-4,4Z"/><path class="cls-2" d="M35.07,4h-2V28l4-4V2A2,2,0,0,1,35.07,4Z"/><path class="cls-4" d="M35.07,42.52h-2v2a2,2,0,1,0,2-2Z"/><path class="cls-4" d="M33.07,2V4h2a2,2,0,1,0-2-2Z"/><path class="cls-3" d="M9.8,13.45H27.28a2,2,0,0,0,0-4H9.8a2,2,0,0,0,0,4Z"/><path class="cls-2" d="M27.28,18.9H9.8a2,2,0,1,0,0,4H27.28a2,2,0,0,0,0-4Z"/><path class="cls-5" d="M29,37.67l-.21.11Z"/><path class="cls-5" d="M27.19,37.83,27,37.75Z"/><path class="cls-5" d="M26.84,37.64l-.15-.12Z"/><path class="cls-5" d="M28.69,37.84l-.25.07Z"/><path class="cls-3" d="M26.54,34.57,28,33.11l-4-4.31A2,2,0,1,0,21,31.55l5.46,5.81,0,0A2,2,0,0,1,26.54,34.57Z"/><path class="cls-5" d="M27.57,37.95l-.14,0Z"/><path class="cls-5" d="M29.33,37.44l0,0-.18.15Z"/><path class="cls-5" d="M28.33,38A2,2,0,0,1,28,38,2,2,0,0,0,28.33,38Z"/><path class="cls-5" d="M28.45,37.92l-.12,0Z"/><path class="cls-3" d="M29.41,34.62a2,2,0,0,1-.07,2.8l0,0,3.7-3.7V28L28,33.11Z"/><path class="cls-5" d="M28.83,37.78l-.14.07Z"/><path class="cls-5" d="M26.54,37.4l.15.12-.17-.15Z"/><path class="cls-5" d="M27,37.75l-.19-.11Z"/><path class="cls-5" d="M27.43,37.91l-.24-.07Z"/><path class="cls-3" d="M42.46,21.48a2,2,0,0,0-2.83,0L37.07,24V29.7l5.39-5.39A2,2,0,0,0,42.46,21.48Z"/><path class="cls-5" d="M29.17,37.57l-.13.1Z"/><path class="cls-5" d="M28,38a2,2,0,0,1-.39,0A2,2,0,0,0,28,38Z"/><polygon class="cls-4" points="33.07 28.04 33.07 33.7 37.07 29.7 37.07 24.04 33.07 28.04"/><path class="cls-4" d="M29.41,34.62,28,33.11l-1.46,1.46a2,2,0,0,0,0,2.8l.17.15.15.12.19.11.16.08.24.07.14,0a2,2,0,0,0,.76,0l.12,0,.25-.07.14-.07.21-.11.13-.1.18-.15A2,2,0,0,0,29.41,34.62Z"/></g></g></svg>