<svg xmlns="http://www.w3.org/2000/svg" viewBox="0 0 37.07 48.88"><defs><style>.cls-1{fill:none;}.cls-2{fill:#fff;}.cls-3{fill:#b4b4b4;}.cls-4{fill:#969696;}.cls-5{fill:#465ffa;}</style></defs><title>Element 19</title><g id="Ebene_2" data-name="Ebene 2"><g id="Ebene_3" data-name="Ebene 3"><path class="cls-1" d="M4,20.54V44.88H33.07V20.54H4ZM18.54,27a3.51,3.51,0,0,1,2,6.4v4a2,2,0,0,1-4,0v-4a3.51,3.51,0,0,1,2-6.4Z"/><path class="cls-2" d="M35.07,20.54h-2V44.88h2a2,2,0,0,1,2,2V18.54A2,2,0,0,1,35.07,20.54Z"/><path class="cls-3" d="M2,44.88H4V20.54H2a2,2,0,0,1-2-2V46.88A2,2,0,0,1,2,44.88Z"/><path class="cls-2" d="M33.07,46.88v-2H4v2a2,2,0,0,1-2,2H35.07A2,2,0,0,1,33.07,46.88Z"/><path class="cls-4" d="M35.07,44.88h-2v2a2,2,0,1,0,2-2Z"/><path class="cls-4" d="M4,46.88v-2H2a2,2,0,1,0,2,2Z"/><path class="cls-3" d="M11.45,20.54H33.07v-2a2,2,0,0,1,2-2H13.45v2A2,2,0,0,1,11.45,20.54Z"/><path class="cls-3" d="M4,18.54v2h7.45a2,2,0,0,1-2-2v-2H2A2,2,0,0,1,4,18.54Z"/><path class="cls-4" d="M35.07,16.54a2,2,0,0,0-2,2v2h2a2,2,0,0,0,0-4Z"/><path class="cls-4" d="M2,20.54H4v-2a2,2,0,1,0-2,2Z"/><path class="cls-2" d="M13.45,9.09a5.09,5.09,0,1,1,10.17,0,2,2,0,0,0,4,0,9.09,9.09,0,1,0-18.17,0v7.45h4Z"/><path class="cls-4" d="M11.45,20.54a2,2,0,0,0,2-2v-2h-4v2A2,2,0,0,0,11.45,20.54Z"/><path class="cls-3" d="M18.54,27a3.51,3.51,0,0,0-2,6.4V31a2,2,0,0,1,4,0v2.45a3.51,3.51,0,0,0-2-6.4Z"/><path class="cls-2" d="M16.54,33.42v4a2,2,0,0,0,4,0v-4a3.49,3.49,0,0,1-4,0Z"/><path class="cls-5" d="M18.7,30.53a.17.17,0,1,0-.34,0C18.37,30.72,18.7,30.72,18.7,30.53Z"/><path class="cls-4" d="M20.31,30.08a2,2,0,0,0-3.78.89v2.45a3.49,3.49,0,0,0,4,0V31A2,2,0,0,0,20.31,30.08Z"/></g></g></svg>