<svg xmlns="http://www.w3.org/2000/svg" viewBox="0 0 51.24 41.79"><defs><style>.cls-1{fill:none;}.cls-2{fill:#fff;}.cls-3{fill:#b4b4b4;}.cls-4{fill:#969696;}</style></defs><title>Element 15</title><g id="Ebene_2" data-name="Ebene 2"><g id="Ebene_3" data-name="Ebene 3"><path class="cls-1" d="M11.45,13.45H4V29.4H9.45V23a2,2,0,0,1,2-2H39.8a2,2,0,0,1,2,2v6.4h5.45V13.45H11.45Z"/><polygon class="cls-1" points="13.45 25 13.45 31.4 13.45 37.8 37.8 37.8 37.8 31.4 37.8 25 13.45 25"/><rect class="cls-1" x="13.45" y="4" width="24.35" height="5.45"/><path class="cls-2" d="M49.24,13.45h-2V29.4h2a2,2,0,0,1,2,2V11.45A2,2,0,0,1,49.24,13.45Z"/><path class="cls-3" d="M2,29.4H4V13.45H2a2,2,0,0,1-2-2V31.4A2,2,0,0,1,2,29.4Z"/><path class="cls-2" d="M4,29.4v2a2,2,0,0,1-2,2H9.45v-4Z"/><path class="cls-4" d="M4,31.4v-2H2a2,2,0,1,0,2,2Z"/><path class="cls-2" d="M47.24,31.4v-2H41.8v4h7.45A2,2,0,0,1,47.24,31.4Z"/><path class="cls-4" d="M49.24,29.4h-2v2a2,2,0,1,0,2-2Z"/><path class="cls-2" d="M37.8,11.45v-2H13.45v2a2,2,0,0,1-2,2H39.8A2,2,0,0,1,37.8,11.45Z"/><path class="cls-2" d="M4,11.45v2h7.45a2,2,0,0,1-2-2v-2H2A2,2,0,0,1,4,11.45Z"/><path class="cls-2" d="M39.8,13.45h7.45v-2a2,2,0,0,1,2-2H41.8v2A2,2,0,0,1,39.8,13.45Z"/><path class="cls-4" d="M49.24,9.45a2,2,0,0,0-2,2v2h2a2,2,0,0,0,0-4Z"/><path class="cls-4" d="M2,13.45H4v-2a2,2,0,1,0-2,2Z"/><path class="cls-2" d="M13.45,2V4H37.8V2a2,2,0,0,1,2-2H11.45A2,2,0,0,1,13.45,2Z"/><path class="cls-2" d="M13.45,23v2H37.8V23a2,2,0,0,1,2-2H11.45A2,2,0,0,1,13.45,23Z"/><path class="cls-3" d="M39.8,4h-2V9.45h4V2A2,2,0,0,1,39.8,4Z"/><path class="cls-4" d="M37.8,11.45a2,2,0,1,0,4,0v-2h-4Z"/><path class="cls-4" d="M37.8,2V4h2a2,2,0,1,0-2-2Z"/><path class="cls-3" d="M13.45,4h-2a2,2,0,0,1-2-2V9.45h4Z"/><path class="cls-4" d="M11.45,13.45a2,2,0,0,0,2-2v-2h-4v2A2,2,0,0,0,11.45,13.45Z"/><path class="cls-4" d="M11.45,4h2V2a2,2,0,1,0-2,2Z"/><path class="cls-3" d="M37.8,39.79v-2H13.45v2a2,2,0,0,1-2,2H39.8A2,2,0,0,1,37.8,39.79Z"/><path class="cls-3" d="M11.45,37.79h2V31.4a2,2,0,0,1-2,2h-2v6.4A2,2,0,0,1,11.45,37.79Z"/><path class="cls-3" d="M11.45,25a2,2,0,0,1-2-2v6.4h2a2,2,0,0,1,2,2V25Z"/><path class="cls-4" d="M13.45,31.4a2,2,0,0,0-2-2h-2v4h2A2,2,0,0,0,13.45,31.4Z"/><path class="cls-4" d="M11.45,25h2V23a2,2,0,1,0-2,2Z"/><path class="cls-4" d="M13.45,39.79v-2h-2a2,2,0,1,0,2,2Z"/><path class="cls-3" d="M37.8,31.4v6.4h2a2,2,0,0,1,2,2V33.4h-2A2,2,0,0,1,37.8,31.4Z"/><path class="cls-3" d="M39.8,25h-2v6.4a2,2,0,0,1,2-2h2V23A2,2,0,0,1,39.8,25Z"/><path class="cls-4" d="M39.8,29.4a2,2,0,0,0,0,4h2v-4Z"/><path class="cls-4" d="M37.8,23v2h2a2,2,0,1,0-2-2Z"/><path class="cls-4" d="M39.8,37.79h-2v2a2,2,0,1,0,2-2Z"/></g></g></svg>