<svg xmlns="http://www.w3.org/2000/svg" viewBox="0 0 51.24 41.79"><defs><style>.cls-1{fill:none;}.cls-2{fill:#fff;}.cls-3{fill:#b4b4b4;}.cls-4{fill:#969696;}</style></defs><title>Element 16</title><g id="Ebene_2" data-name="Ebene 2"><g id="Ebene_3" data-name="Ebene 3"><circle class="cls-1" cx="25.62" cy="11.37" r="2.72"/><circle class="cls-1" cx="41.37" cy="6.72" r="2.72"/><circle class="cls-1" cx="9.87" cy="6.72" r="2.72"/><path class="cls-2" d="M31.92,17.87a9.9,9.9,0,0,0-2-1.3,6.71,6.71,0,0,1-8.52,0,9.9,9.9,0,0,0-2,1.3,9.83,9.83,0,0,1,.43,2.87v4.72a5.87,5.87,0,1,1,11.75,0V20.74A9.83,9.83,0,0,1,31.92,17.87Z"/><path class="cls-3" d="M29.88,16.57a6.72,6.72,0,1,0-8.52,0,9.75,9.75,0,0,1,8.52,0Zm-7-5.2a2.72,2.72,0,1,1,2.72,2.72A2.73,2.73,0,0,1,22.9,11.37Z"/><path class="cls-4" d="M29.88,16.57a9.75,9.75,0,0,0-8.52,0,6.71,6.71,0,0,0,8.52,0Z"/><path class="cls-3" d="M45.69,11.87a6.7,6.7,0,0,1-8.63,0,9.91,9.91,0,0,0-5.13,6,9.86,9.86,0,0,1,3.57,7.59V20.74a5.87,5.87,0,1,1,11.75,0V35.07a2,2,0,0,0,4,0V20.74A9.88,9.88,0,0,0,45.69,11.87Z"/><path class="cls-4" d="M31.92,17.87a9.83,9.83,0,0,0-.43,2.87V39.79a2,2,0,1,0,4,0V25.46A9.86,9.86,0,0,0,31.92,17.87Z"/><path class="cls-2" d="M45.69,11.87a6.72,6.72,0,1,0-8.63,0,9.75,9.75,0,0,1,8.63,0Zm-7-5.15a2.72,2.72,0,1,1,2.72,2.72A2.73,2.73,0,0,1,38.65,6.72Z"/><path class="cls-4" d="M45.69,11.87a9.75,9.75,0,0,0-8.63,0,6.7,6.7,0,0,0,8.63,0Z"/><path class="cls-3" d="M19.32,17.87a9.91,9.91,0,0,0-5.13-6,6.7,6.7,0,0,1-8.63,0A9.88,9.88,0,0,0,0,20.74V35.07a2,2,0,0,0,4,0V20.74a5.87,5.87,0,0,1,11.75,0v4.72A9.86,9.86,0,0,1,19.32,17.87Z"/><path class="cls-4" d="M19.32,17.87a9.86,9.86,0,0,0-3.57,7.59V39.79a2,2,0,0,0,4,0V20.74A9.83,9.83,0,0,0,19.32,17.87Z"/><path class="cls-2" d="M14.19,11.87a6.72,6.72,0,1,0-8.63,0,9.75,9.75,0,0,1,8.63,0Zm-7-5.15A2.72,2.72,0,1,1,9.87,9.45,2.73,2.73,0,0,1,7.15,6.72Z"/><path class="cls-4" d="M14.19,11.87a9.75,9.75,0,0,0-8.63,0,6.7,6.7,0,0,0,8.63,0Z"/></g></g></svg>