<svg xmlns="http://www.w3.org/2000/svg" viewBox="0 0 35.18 48.88"><defs><style>.cls-1{fill:none;}.cls-2{fill:#fff;}.cls-3{fill:#b4b4b4;}.cls-4{fill:#969696;}</style></defs><title>Element 25</title><g id="Ebene_2" data-name="Ebene 2"><g id="Ebene_3" data-name="Ebene 3"><path class="cls-1" d="M17.59,4A5.09,5.09,0,0,0,12.5,9.09V20.9a5.09,5.09,0,0,0,10.17,0V9.09A5.09,5.09,0,0,0,17.59,4Z"/><path class="cls-2" d="M15.59,38.37v8.52a2,2,0,1,0,4,0V38.37a16.42,16.42,0,0,1-4,0Z"/><path class="cls-3" d="M10.5,13a2,2,0,0,1,2,2V9.09a5.09,5.09,0,0,1,10.17,0V15a2,2,0,0,1,4,0V9.09a9.09,9.09,0,0,0-18.17,0V15A2,2,0,0,1,10.5,13Z"/><path class="cls-2" d="M17.59,30a9.1,9.1,0,0,0,9.09-9.09V15a2,2,0,1,1-4,0V20.9a5.09,5.09,0,0,1-10.17,0V15a2,2,0,0,1-4,0V20.9A9.1,9.1,0,0,0,17.59,30Z"/><circle class="cls-4" cx="10.5" cy="14.99" r="2"/><circle class="cls-4" cx="24.68" cy="14.99" r="2"/><path class="cls-3" d="M33.18,18.9a2,2,0,0,0-2,2A13.61,13.61,0,0,1,17.59,34.49a2,2,0,0,1,2,2v1.88A17.61,17.61,0,0,0,35.18,20.9,2,2,0,0,0,33.18,18.9Z"/><path class="cls-3" d="M17.59,34.49A13.61,13.61,0,0,1,4,20.9a2,2,0,0,0-4,0A17.61,17.61,0,0,0,15.59,38.37V36.49A2,2,0,0,1,17.59,34.49Z"/><path class="cls-4" d="M17.59,34.49a2,2,0,0,0-2,2v1.88a16.42,16.42,0,0,0,4,0V36.49A2,2,0,0,0,17.59,34.49Z"/></g></g></svg>