<svg xmlns="http://www.w3.org/2000/svg" viewBox="0 0 51.41 44.69"><defs><style>.cls-1{fill:none;}.cls-2{fill:#b4b4b4;}.cls-3{fill:#fff;}.cls-4{fill:#969696;}</style></defs><title>Element 23</title><g id="Ebene_2" data-name="Ebene 2"><g id="Ebene_3" data-name="Ebene 3"><circle class="cls-1" cx="34.12" cy="14.26" r="2.72"/><path class="cls-1" d="M4,28.8H24.25v-.44a9.88,9.88,0,0,1,5.62-8.89,6.72,6.72,0,1,1,8.52,0A9.88,9.88,0,0,1,44,28.36v.44h3.41V4H4Z"/><path class="cls-2" d="M49.41,4h-2V28.8h2a2,2,0,0,1,2,2V2A2,2,0,0,1,49.41,4Z"/><path class="cls-3" d="M2,28.8H4V4H2A2,2,0,0,1,0,2V30.8A2,2,0,0,1,2,28.8Z"/><path class="cls-2" d="M4,2V4H47.41V2a2,2,0,0,1,2-2H2A2,2,0,0,1,4,2Z"/><path class="cls-4" d="M49.41,0a2,2,0,0,0-2,2V4h2a2,2,0,0,0,0-4Z"/><path class="cls-4" d="M2,4H4V2A2,2,0,1,0,2,4Z"/><path class="cls-3" d="M4,28.8v2a2,2,0,0,1-2,2H24.25v-4Z"/><path class="cls-4" d="M4,30.8v-2H2a2,2,0,1,0,2,2Z"/><path class="cls-3" d="M47.41,30.8v-2H44v4h5.41A2,2,0,0,1,47.41,30.8Z"/><path class="cls-4" d="M49.41,28.8h-2v2a2,2,0,1,0,2-2Z"/><path class="cls-2" d="M42,28.8h2v-.44a9.88,9.88,0,0,0-5.62-8.89,6.71,6.71,0,0,1-8.52,0,9.88,9.88,0,0,0-5.62,8.89v.44h2a2,2,0,0,1,2,2V28.36a5.87,5.87,0,1,1,11.75,0V30.8A2,2,0,0,1,42,28.8Z"/><path class="cls-2" d="M26.25,32.8h-2v9.89a2,2,0,0,0,4,0V30.8A2,2,0,0,1,26.25,32.8Z"/><path class="cls-2" d="M40,30.8V42.69a2,2,0,0,0,4,0V32.8H42A2,2,0,0,1,40,30.8Z"/><path class="cls-4" d="M26.25,28.8h-2v4h2a2,2,0,0,0,0-4Z"/><path class="cls-4" d="M42,28.8a2,2,0,1,0,0,4h2v-4Z"/><path class="cls-3" d="M40.85,14.26a6.72,6.72,0,1,0-11,5.2,9.75,9.75,0,0,1,8.52,0A6.71,6.71,0,0,0,40.85,14.26ZM34.12,17a2.72,2.72,0,1,1,2.72-2.72A2.73,2.73,0,0,1,34.12,17Z"/><path class="cls-4" d="M29.87,19.46a6.71,6.71,0,0,0,8.52,0,9.75,9.75,0,0,0-8.52,0Z"/></g></g></svg>