<svg xmlns="http://www.w3.org/2000/svg" viewBox="0 0 51.29 37.07"><defs><style>.cls-1{fill:none;}.cls-2{fill:#fff;}.cls-3{fill:#b4b4b4;}.cls-4{fill:#969696;}</style></defs><title>Element 26</title><g id="Ebene_2" data-name="Ebene 2"><g id="Ebene_3" data-name="Ebene 3"><circle class="cls-1" cx="12.7" cy="16.17" r="2.72"/><path class="cls-1" d="M20.56,18.54v7.21H47.29V13.45H25.65A5.09,5.09,0,0,0,20.56,18.54Z"/><path class="cls-2" d="M18.55,12.88a6.73,6.73,0,1,0-2,8.79V18.54A9,9,0,0,1,18.55,12.88Zm-5.85,6a2.72,2.72,0,1,1,2.72-2.72A2.73,2.73,0,0,1,12.7,18.9Z"/><path class="cls-3" d="M20.56,18.54a5.09,5.09,0,0,1,5.09-5.09H47.29v-4H25.65a9.07,9.07,0,0,0-7.1,3.43,6.7,6.7,0,0,1-2,8.79v4.08h4Z"/><path class="cls-4" d="M19.42,16.17a6.68,6.68,0,0,0-.87-3.3,9,9,0,0,0-2,5.66v3.13A6.72,6.72,0,0,0,19.42,16.17Z"/><path class="cls-3" d="M0,27.75v7.32a2,2,0,0,0,4,0V29.75H2A2,2,0,0,1,0,27.75Z"/><path class="cls-3" d="M2,25.75H4V2A2,2,0,0,0,0,2V27.75A2,2,0,0,1,2,25.75Z"/><path class="cls-2" d="M49.29,4.72a2,2,0,0,0-2,2V9.45h2a2,2,0,0,1,2,2V6.72A2,2,0,0,0,49.29,4.72Z"/><path class="cls-2" d="M49.29,29.75h-2v5.32a2,2,0,0,0,4,0V27.75A2,2,0,0,1,49.29,29.75Z"/><path class="cls-2" d="M49.29,13.45h-2v12.3h2a2,2,0,0,1,2,2V11.45A2,2,0,0,1,49.29,13.45Z"/><path class="cls-4" d="M49.29,9.45h-2v4h2a2,2,0,0,0,0-4Z"/><path class="cls-2" d="M16.56,27.75v-2H4v4H18.56A2,2,0,0,1,16.56,27.75Z"/><path class="cls-2" d="M20.56,25.75v2a2,2,0,0,1-2,2H47.29v-4Z"/><path class="cls-4" d="M20.56,27.75v-2h-4v2a2,2,0,1,0,4,0Z"/><path class="cls-4" d="M2,25.75a2,2,0,0,0,0,4H4v-4Z"/><path class="cls-4" d="M49.29,25.75h-2v4h2a2,2,0,0,0,0-4Z"/></g></g></svg>