<svg xmlns="http://www.w3.org/2000/svg" viewBox="0 0 37.31 46.52"><defs><style>.cls-1{fill:none;}.cls-2{fill:#465ffa;}.cls-3{fill:#fff;}.cls-4{fill:#969696;}.cls-5{fill:#b4b4b4;}</style></defs><title>Element 24</title><g id="Ebene_2" data-name="Ebene 2"><g id="Ebene_3" data-name="Ebene 3"><path class="cls-1" d="M21.9,14a4.65,4.65,0,0,0,3.28.3,2,2,0,0,1,.43-.08H26l.15,0,.22.05.13.05.22.1.1.06.22.16.07.07a2,2,0,0,1,.2.2l.07.1a2,2,0,0,1,.14.21A15.48,15.48,0,0,1,15.3,37.95h-.2a2,2,0,0,1-.54-.09l-.1,0A2,2,0,0,1,14,37.6l-.08-.06a2,2,0,0,1-.39-.39l0,0a2,2,0,0,1-.26-.52v0a4.63,4.63,0,0,0-4.6-3.27l-3.89,7.6a20.6,20.6,0,0,0,26.14-9.22,20.6,20.6,0,0,0-6.7-26.9L20,12.17A4.64,4.64,0,0,0,21.9,14Z"/><path class="cls-2" d="M22.59.18a2,2,0,0,1,.29-.11A2,2,0,0,0,22.59.18Z"/><path class="cls-3" d="M24.41.26A2,2,0,0,1,25.16,3l-1,1.79a20.61,20.61,0,0,1-5.52,36.87,20.45,20.45,0,0,1-13.92-.75l-.94,1.83a2,2,0,0,1-2.68.87A24.61,24.61,0,0,0,24.41.26Z"/><path class="cls-2" d="M.07,41.26a2,2,0,0,1,.07-.19C.12,41.13.09,41.2.07,41.26Z"/><path class="cls-2" d="M22,.6a2,2,0,0,1,.19-.17A2,2,0,0,0,22,.6Z"/><path class="cls-2" d="M24.37.24,24.18.16l.21.09Z"/><path class="cls-2" d="M22.28.36a2,2,0,0,1,.24-.15A2,2,0,0,0,22.28.36Z"/><path class="cls-2" d="M23.73,0,24,.09Z"/><path class="cls-2" d="M0,41.64c0-.06,0-.13,0-.19S0,41.58,0,41.64Z"/><path class="cls-2" d="M22.93.06A2,2,0,0,1,23.26,0,2,2,0,0,0,22.93.06Z"/><path class="cls-2" d="M21.78.87A2,2,0,0,1,21.9.7,2,2,0,0,0,21.78.87Z"/><path class="cls-2" d="M23.31,0a2,2,0,0,1,.32,0A2,2,0,0,0,23.31,0Z"/><path class="cls-2" d="M1,43.57l0,0L.9,43.47Z"/><path class="cls-2" d="M.45,43.08c0-.05-.08-.11-.11-.16A1.94,1.94,0,0,0,.45,43.08Z"/><path class="cls-2" d="M.09,42.41c0-.06,0-.13,0-.19S.07,42.35.09,42.41Z"/><path class="cls-2" d="M.73,43.36l-.14-.14Z"/><path class="cls-2" d="M0,42c0-.06,0-.13,0-.19S0,42,0,42Z"/><path class="cls-2" d="M.23,42.76c0-.06-.05-.12-.08-.18S.2,42.7.23,42.76Z"/><path class="cls-2" d="M.59,43.22l-.14-.14Z"/><path class="cls-2" d="M.34,42.92l-.1-.16Z"/><path class="cls-2" d="M.9,43.47l-.17-.12Z"/><path class="cls-2" d="M0,41.84c0-.07,0-.13,0-.2S0,41.78,0,41.84Z"/><path class="cls-2" d="M1.08,43.59h0Z"/><path class="cls-2" d="M.16,42.58c0-.06-.05-.11-.07-.17S.13,42.52.16,42.58Z"/><path class="cls-2" d="M6,30l0,0Z"/><path class="cls-3" d="M2.94,40.05c.58.31,1.17.59,1.77.84l3.89-7.6a4.87,4.87,0,0,0-.87.11,2,2,0,0,1-2.15-2.95l-.07.11L.21,40.9c0,.06,0,.11-.07.17a2,2,0,0,1,.09-.21A2,2,0,0,1,2.94,40.05Z"/><path class="cls-2" d="M5.68,30.29l.09-.12Z"/><path class="cls-2" d="M0,41.46a2,2,0,0,1,0-.2A1.9,1.9,0,0,0,0,41.46Z"/><path class="cls-2" d="M0,42.22c0-.06,0-.12,0-.19S0,42.16,0,42.22Z"/><path class="cls-4" d="M3.77,42.72l.94-1.83c-.6-.25-1.19-.53-1.77-.84a2,2,0,0,0-2.71.81,2,2,0,0,0-.09.21,2,2,0,0,0-.07.19,2,2,0,0,0,0,.2c0,.06,0,.13,0,.19s0,.13,0,.2S0,42,0,42s0,.12,0,.19,0,.13,0,.19,0,.11.07.17,0,.12.08.18l.1.16c0,.06.07.11.11.16l.14.14.14.14.17.12.18.11h0a2,2,0,0,0,2.68-.87Z"/><path class="cls-2" d="M14,37.6a2,2,0,0,0,.47.24A2,2,0,0,1,14,37.6Z"/><path class="cls-2" d="M25.18,14.25h0a2,2,0,0,1,.39-.07A2,2,0,0,0,25.18,14.25Z"/><path class="cls-2" d="M26.37,14.27l-.22-.05Z"/><path class="cls-2" d="M26,14.19h0Z"/><path class="cls-2" d="M26.73,14.42l-.22-.1Z"/><path class="cls-2" d="M14.55,37.87a2,2,0,0,0,.54.09A2,2,0,0,1,14.55,37.87Z"/><path class="cls-2" d="M27,14.64l-.22-.16Z"/><path class="cls-2" d="M13.9,37.54a2,2,0,0,1-.39-.39A2,2,0,0,0,13.9,37.54Z"/><path class="cls-2" d="M27.12,14.72a2,2,0,0,1,.2.2A2,2,0,0,0,27.12,14.72Z"/><path class="cls-5" d="M15.72,37.86a2,2,0,0,1-.6.09h.18A15.48,15.48,0,0,0,27.52,15.23a2,2,0,0,0-.14-.21,2,2,0,0,1-1.1,3.08,8.78,8.78,0,0,1-1.72.28,11.47,11.47,0,0,1-8.25,15.37,8.84,8.84,0,0,1,.7,1.6A2,2,0,0,1,15.72,37.86Z"/><path class="cls-2" d="M13.22,36.59a2,2,0,0,0,.26.52A2,2,0,0,1,13.22,36.59Z"/><path class="cls-2" d="M15.86,11.37l.08-.17Z"/><path class="cls-2" d="M27.39,15l-.07-.1Z"/><path class="cls-2" d="M15.73,12.14c0-.07,0-.13,0-.2S15.73,12.07,15.73,12.14Z"/><path class="cls-2" d="M15.77,12.52a2.05,2.05,0,0,1,0-.21A2,2,0,0,0,15.77,12.52Z"/><path class="cls-2" d="M27,14.64l.07.07Z"/><path class="cls-2" d="M15.76,11.74c0-.06,0-.12,0-.18S15.77,11.68,15.76,11.74Z"/><path class="cls-3" d="M24.82,14.4a2,2,0,0,1,.36-.15A4.62,4.62,0,0,1,20,12.17l-.51.91a2,2,0,0,1-3.64-.37s0,.07,0,.1a8.63,8.63,0,0,0,8.09,5.62c.21,0,.42,0,.63,0A11.62,11.62,0,0,0,24,17.11,2,2,0,0,1,24.82,14.4Z"/><path class="cls-2" d="M26.51,14.32l-.13-.05Z"/><path class="cls-2" d="M26.83,14.49l-.1-.06Z"/><path class="cls-2" d="M26.15,14.22l-.15,0Z"/><path class="cls-2" d="M25.61,14.18h0Z"/><path class="cls-4" d="M27.69,15.64a2,2,0,0,0-.3-.62l-.07-.1a2,2,0,0,0-.2-.2L27,14.64l-.22-.16-.1-.06-.22-.1-.13-.05-.22-.05-.15,0h-.38a2,2,0,0,0-.39.07h0A2,2,0,0,0,24,17.11a11.62,11.62,0,0,1,.58,1.27,8.78,8.78,0,0,0,1.72-.28A2,2,0,0,0,27.69,15.64Z"/><path class="cls-2" d="M22.19.42l.09-.06Z"/><path class="cls-2" d="M15.82,12.7c0-.06,0-.12,0-.18S15.8,12.64,15.82,12.7Z"/><path class="cls-2" d="M15.74,12.32c0-.06,0-.12,0-.18S15.73,12.26,15.74,12.32Z"/><path class="cls-2" d="M22.52.21l.07,0Z"/><path class="cls-2" d="M15.73,11.94c0-.06,0-.13,0-.19S15.73,11.87,15.73,11.94Z"/><path class="cls-2" d="M15.8,11.56a2,2,0,0,1,.07-.19A2,2,0,0,0,15.8,11.56Z"/><path class="cls-2" d="M21.9.7,22,.6Z"/><path class="cls-5" d="M17,10.22a2,2,0,0,1,2.58,1.16,4.89,4.89,0,0,0,.38.78l4.18-7.4c-.54-.36-1.1-.7-1.68-1A2,2,0,0,1,21.66,1a2,2,0,0,1,.12-.18s-.07.09-.1.14L16,11.1l0,.09A2,2,0,0,1,17,10.22Z"/><path class="cls-2" d="M24,.09l.16.07Z"/><path class="cls-2" d="M24.4.26h0Z"/><path class="cls-2" d="M22.88.07h0Z"/><path class="cls-2" d="M23.26,0h0Z"/><path class="cls-2" d="M23.64,0l.1,0Z"/><path class="cls-4" d="M22.47,3.76c.58.31,1.14.65,1.68,1l1-1.79A2,2,0,0,0,24.41.26h0L24.18.16,24,.09,23.73,0l-.1,0a2,2,0,0,0-.32,0h-.06a2,2,0,0,0-.32.06h-.05a2,2,0,0,0-.29.11l-.07,0a2,2,0,0,0-.24.15l-.09.06A2,2,0,0,0,22,.6l-.1.1a2,2,0,0,0-.12.18,2,2,0,0,0-.12.18A2,2,0,0,0,22.47,3.76Z"/><path class="cls-4" d="M16.73,13.83a2,2,0,0,0,2.73-.76l.51-.91a4.89,4.89,0,0,1-.38-.78,2,2,0,0,0-3.65-.18l-.08.17a2,2,0,0,0-.07.19c0,.06,0,.12,0,.18s0,.13,0,.19,0,.13,0,.2,0,.12,0,.18a2.05,2.05,0,0,0,0,.21c0,.06,0,.12,0,.18A2,2,0,0,0,16.73,13.83Z"/><path class="cls-2" d="M13.51,37.15l0,0Z"/><path class="cls-5" d="M8.2,29.69a2,2,0,0,1,.87,2.69l-.47.91a4.63,4.63,0,0,1,4.6,3.27v0A2,2,0,0,1,14.92,34a11.61,11.61,0,0,0,1.39-.22,8.61,8.61,0,0,0-9.44-4.25,2,2,0,0,0-.86.43A2,2,0,0,1,8.2,29.69Z"/><path class="cls-2" d="M5.77,30.17A2,2,0,0,1,6,30,2,2,0,0,0,5.77,30.17Z"/><path class="cls-2" d="M15.12,38h0Z"/><path class="cls-2" d="M5.57,30.45l.11-.17Z"/><path class="cls-2" d="M13.9,37.54l.08.06Z"/><path class="cls-2" d="M14.46,37.84l.1,0Z"/><path class="cls-4" d="M5.35,31.87A2,2,0,0,0,7.73,33.4a4.87,4.87,0,0,1,.87-.11l.47-.91a2,2,0,0,0-3-2.46l0,0a2,2,0,0,0-.21.21l-.09.12-.11.17A2,2,0,0,0,5.35,31.87Z"/><path class="cls-4" d="M13.12,36.14a2.09,2.09,0,0,0,.36,1l0,0a2,2,0,0,0,.39.39l.08.06a2,2,0,0,0,.47.24l.1,0a2,2,0,0,0,.54.09h0A2,2,0,0,0,17,35.35a8.84,8.84,0,0,0-.7-1.6,11.61,11.61,0,0,1-1.39.22A2,2,0,0,0,13.12,36.14Z"/></g></g></svg>