<svg xmlns="http://www.w3.org/2000/svg" viewBox="0 0 65.82 55.87"><defs><style>.cls-1{fill:none;}.cls-2{fill:#fff;}.cls-3{fill:#465ffa;}.cls-4{fill:#b4b4b4;}.cls-5{fill:#969696;}</style></defs><title>Element 20</title><g id="Ebene_2" data-name="Ebene 2"><g id="Ebene_3" data-name="Ebene 3"><circle class="cls-1" cx="59.1" cy="37.34" r="2.72"/><circle class="cls-1" cx="28.39" cy="34.9" r="2.72"/><path class="cls-1" d="M8.65,13.76a2.72,2.72,0,1,0,0,3.85A2.72,2.72,0,0,0,8.65,13.76Z"/><path class="cls-1" d="M13.85,37.34A14.48,14.48,0,0,0,18.56,48a9.89,9.89,0,0,1,5.57-7.92,6.72,6.72,0,1,1,8.52,0A9.89,9.89,0,0,1,38.21,48,14.53,14.53,0,1,0,13.85,37.34Z"/><circle class="cls-1" cx="28.39" cy="6.72" r="2.72"/><path class="cls-1" d="M28.39,43.12A5.88,5.88,0,0,0,22.52,49v1.63a14.42,14.42,0,0,0,11.75,0V49A5.88,5.88,0,0,0,28.39,43.12Z"/><path class="cls-2" d="M59.1,30.61a6.74,6.74,0,0,0-6.42,4.72h1.7a2,2,0,0,1,2,2,2.72,2.72,0,1,1,2.72,2.72,2.73,2.73,0,0,1-2.72-2.72,2,2,0,0,1-2,2h-1.7a6.72,6.72,0,1,0,6.42-8.72Z"/><path class="cls-3" d="M19.63,53.67l-.14-.07Z"/><path class="cls-3" d="M37.29,53.59l-.14.08Z"/><path class="cls-2" d="M43,37.34a2,2,0,0,1,2-2h1.79A18.56,18.56,0,0,0,30.39,18.91V20.8a2,2,0,0,1-2,2A14.51,14.51,0,0,1,38.21,48c0,.32,0,.64,0,1v2.89a2,2,0,0,1-.85,1.63,18.56,18.56,0,0,0,9.4-14.18H45A2,2,0,0,1,43,37.34Z"/><path class="cls-2" d="M34.26,51.88V50.62a14.42,14.42,0,0,1-11.75,0v1.26a2,2,0,0,1-2.74,1.85,18.43,18.43,0,0,0,17.23,0,2,2,0,0,1-2.74-1.85Z"/><path class="cls-2" d="M18.52,51.88V49c0-.33,0-.65,0-1A14.51,14.51,0,0,1,28.39,22.8a2,2,0,0,1-2-2V18.91a18.44,18.44,0,0,0-9.61,4l1.31,1.31A2,2,0,1,1,15.26,27L14,25.74a18.49,18.49,0,0,0,5.42,27.77A2,2,0,0,1,18.52,51.88Z"/><path class="cls-4" d="M52.68,35.34H46.81a17.86,17.86,0,0,1,0,4h5.86a6.73,6.73,0,0,1,0-4Z"/><path class="cls-5" d="M56.37,37.34a2,2,0,0,0-2-2h-1.7a6.73,6.73,0,0,0,0,4h1.7A2,2,0,0,0,56.37,37.34Z"/><path class="cls-5" d="M46.81,35.34H45a2,2,0,1,0,0,4h1.79a17.86,17.86,0,0,0,0-4Z"/><path class="cls-4" d="M28.39,9.45a2.72,2.72,0,1,1,2.72-2.72,2.73,2.73,0,0,1-2.72,2.72,2,2,0,0,1,2,2v1.7a6.72,6.72,0,1,0-4,0v-1.7A2,2,0,0,1,28.39,9.45Z"/><path class="cls-2" d="M30.39,18.91V13.15a6.73,6.73,0,0,1-4,0v5.77a17.86,17.86,0,0,1,4,0Z"/><path class="cls-5" d="M28.39,22.8a2,2,0,0,0,2-2V18.91a17.86,17.86,0,0,0-4,0V20.8A2,2,0,0,0,28.39,22.8Z"/><path class="cls-5" d="M30.39,13.15v-1.7a2,2,0,1,0-4,0v1.7a6.73,6.73,0,0,0,4,0Z"/><path class="cls-2" d="M8.65,17.61a2,2,0,0,1,2.83,0l1.2,1.2a6.71,6.71,0,1,0-2.83,2.83l-1.2-1.2A2,2,0,0,1,8.65,17.61Zm-3.85,0a2.72,2.72,0,1,1,3.85,0A2.73,2.73,0,0,1,4.79,17.61Z"/><path class="cls-4" d="M16.78,22.91l-4.1-4.1a6.73,6.73,0,0,1-2.83,2.83l4.1,4.1A18.69,18.69,0,0,1,16.78,22.91Z"/><path class="cls-5" d="M16.67,27.64a2,2,0,0,0,1.41-3.41l-1.31-1.31A18.69,18.69,0,0,0,14,25.74L15.26,27A2,2,0,0,0,16.67,27.64Z"/><path class="cls-5" d="M12.68,18.81l-1.2-1.2a2,2,0,1,0-2.83,2.83l1.2,1.2a6.73,6.73,0,0,0,2.83-2.83Z"/><path class="cls-3" d="M19.5,53.59l-.13-.08Z"/><path class="cls-3" d="M19.77,53.73l-.14-.07Z"/><path class="cls-3" d="M37.41,53.51l-.13.08Z"/><path class="cls-4" d="M32.65,40.1a6.71,6.71,0,0,1-8.52,0A9.89,9.89,0,0,0,18.56,48a14.56,14.56,0,0,0,4,2.6V49a5.87,5.87,0,1,1,11.75,0v1.63a14.56,14.56,0,0,0,4-2.6A9.89,9.89,0,0,0,32.65,40.1Z"/><path class="cls-3" d="M37.14,53.67l-.14.07Z"/><path class="cls-5" d="M22.52,51.88V50.62a14.56,14.56,0,0,1-4-2.6c0,.32,0,.64,0,1v2.89a2,2,0,0,0,.85,1.63l.13.08.14.07.14.07a2,2,0,0,0,2.74-1.85Z"/><path class="cls-5" d="M38.26,51.88V49c0-.33,0-.65,0-1a14.56,14.56,0,0,1-4,2.6v1.26A2,2,0,0,0,37,53.73l.14-.07.14-.08.13-.08A2,2,0,0,0,38.26,51.88Z"/><path class="cls-2" d="M32.65,40.1a6.72,6.72,0,1,0-8.52,0,9.75,9.75,0,0,1,8.52,0Zm-7-5.2a2.72,2.72,0,1,1,2.72,2.72A2.73,2.73,0,0,1,25.67,34.9Z"/><path class="cls-5" d="M32.65,40.1a9.75,9.75,0,0,0-8.52,0,6.71,6.71,0,0,0,8.52,0Z"/></g></g></svg>