<svg xmlns="http://www.w3.org/2000/svg" viewBox="0 0 48.86 41.47"><defs><style>.cls-1{fill:#b4b4b4;}.cls-2{fill:#fff;}.cls-3{fill:#969696;}</style></defs><title>Element 13</title><g id="Ebene_2" data-name="Ebene 2"><g id="Ebene_3" data-name="Ebene 3"><circle class="cls-1" cx="24.43" cy="37.95" r="3.52"/><path class="cls-1" d="M22.43,2a2,2,0,0,1,2-2A37.5,37.5,0,0,0,.75,8.33a2,2,0,0,0,2.5,3.12A33.54,33.54,0,0,1,24.43,4,2,2,0,0,1,22.43,2Z"/><path class="cls-1" d="M22.43,13.3a2,2,0,0,1,2-2A26.68,26.68,0,0,0,7.5,17.38,2,2,0,1,0,10,20.47,22.67,22.67,0,0,1,24.43,15.3,2,2,0,0,1,22.43,13.3Z"/><path class="cls-1" d="M22.43,25.62a2,2,0,0,1,2-2,14.26,14.26,0,0,0-9.58,3.71,2,2,0,0,0,2.68,3,10.26,10.26,0,0,1,6.89-2.68A2,2,0,0,1,22.43,25.62Z"/><path class="cls-2" d="M48.11,8.33A37.5,37.5,0,0,0,24.43,0a2,2,0,0,1,0,4,33.54,33.54,0,0,1,21.18,7.45,2,2,0,0,0,2.5-3.12Z"/><circle class="cls-3" cx="24.43" cy="2" r="2"/><path class="cls-2" d="M24.43,11.3a2,2,0,0,1,0,4,22.66,22.66,0,0,1,14.38,5.17,2,2,0,0,0,2.54-3.09A26.67,26.67,0,0,0,24.43,11.3Z"/><circle class="cls-3" cx="24.43" cy="13.3" r="2"/><path class="cls-2" d="M24.43,23.62a2,2,0,0,1,0,4,10.27,10.27,0,0,1,6.89,2.68,2,2,0,1,0,2.68-3A14.27,14.27,0,0,0,24.43,23.62Z"/><circle class="cls-3" cx="24.43" cy="25.62" r="2"/></g></g></svg>