<svg xmlns="http://www.w3.org/2000/svg" viewBox="0 0 51.24 58.2"><defs><style>.cls-1{fill:none;}.cls-2{fill:#b4b4b4;}.cls-3{fill:#fff;}.cls-4{fill:#465ffa;}.cls-5{fill:#969696;}.cls-6{fill:#a5a5a5;}</style></defs><title>Element 14</title><g id="Ebene_2" data-name="Ebene 2"><g id="Ebene_3" data-name="Ebene 3"><path class="cls-1" d="M42.16,40a5.09,5.09,0,0,0,0-10.17h-.44A20.76,20.76,0,0,1,38.14,40Z"/><path class="cls-1" d="M20.9,45.14A16.92,16.92,0,0,0,37.71,29.85H4.08A16.92,16.92,0,0,0,20.9,45.14Z"/><path class="cls-2" d="M39.8,54.2H2a2,2,0,0,0,0,4H39.8a2,2,0,0,0,0-4Z"/><path class="cls-3" d="M31.83,42a2,2,0,0,1,2-2h4.31a20.76,20.76,0,0,0,3.57-10.17h-4a16.89,16.89,0,0,1-33.63,0H2a2,2,0,0,1-2-2v.39A20.87,20.87,0,0,0,34.56,44h-.73A2,2,0,0,1,31.83,42Z"/><path class="cls-3" d="M23,11.4a2,2,0,0,1-2,2h.16l.49,0A6.68,6.68,0,0,0,21.53,0a2,2,0,0,0,0,4,2.68,2.68,0,1,1,0,5.36h-.16l-.49,0H21A2,2,0,0,1,23,11.4Z"/><polygon class="cls-4" points="20.96 13.4 20.96 13.4 20.96 13.4 20.96 13.4"/><path class="cls-2" d="M20.27,22.76a2,2,0,0,0,0-4,2.68,2.68,0,0,1,0-5.36H21a2,2,0,0,1-.16-4h-.53a6.68,6.68,0,0,0,0,13.36Z"/><path class="cls-5" d="M19,11.56a2,2,0,0,0,2,1.84h0a2,2,0,0,0,0-4H20.8A2,2,0,0,0,19,11.56Z"/><path class="cls-2" d="M4,27.85v.39c0,.54,0,1.08.08,1.61H37.71c.05-.53.08-1.06.08-1.61v-.39a2,2,0,0,1,2-2H2A2,2,0,0,1,4,27.85Z"/><path class="cls-5" d="M2,29.85H4.08C4,29.32,4,28.79,4,28.25v-.39a2,2,0,1,0-2,2Z"/><path class="cls-6" d="M37.8,27.85v.39c0,.54,0,1.08-.08,1.61H39.8A2,2,0,0,1,37.8,27.85Z"/><path class="cls-2" d="M42.16,25.85H39.8a2,2,0,0,1,2,2v.39c0,.54,0,1.07-.08,1.61h.44a5.09,5.09,0,0,1,0,10.17h-4a21.05,21.05,0,0,1-3.59,4h7.6a9.09,9.09,0,0,0,0-18.17Z"/><path class="cls-6" d="M39.8,29.85h1.92c0-.53.08-1.06.08-1.61v-.39A2,2,0,0,1,39.8,29.85Z"/><path class="cls-5" d="M38.14,40H33.83a2,2,0,0,0,0,4h.73A21.05,21.05,0,0,0,38.14,40Z"/><circle class="cls-5" cx="39.8" cy="27.85" r="2"/></g></g></svg>