<svg xmlns="http://www.w3.org/2000/svg" viewBox="0 0 257.28 142.44"><defs><style>.cls-1{isolation:isolate;}.cls-2{fill:#fff;mix-blend-mode:multiply;}</style></defs><title>Element 2</title><g class="cls-1"><g id="Ebene_2" data-name="Ebene 2"><g id="Ebene_1-2" data-name="Ebene 1"><path class="cls-2" d="M36.1,116.71,11.55,83.49c-.09-.12-.2-.21-.29-.32s-.3-.35-.46-.51-.32-.26-.48-.39-.32-.25-.5-.36a4.83,4.83,0,0,0-.55-.3,5.52,5.52,0,0,0-.55-.26l-.6-.19c-.2,0-.39-.11-.59-.14a5.35,5.35,0,0,0-.7-.07c-.14,0-.27,0-.41,0H6.29a5.82,5.82,0,0,0-.73.07c-.18,0-.35,0-.52.08a4.06,4.06,0,0,0-.62.19,5.66,5.66,0,0,0-.58.2,4.59,4.59,0,0,0-.49.26c-.2.12-.41.23-.61.37l-.11.06c-.12.09-.21.2-.32.29s-.35.3-.51.47a6.08,6.08,0,0,0-.39.47c-.12.16-.25.32-.37.5a5.61,5.61,0,0,0-.29.54c-.09.19-.19.37-.26.56a6,6,0,0,0-.19.6,5.63,5.63,0,0,0-.14.59,5.2,5.2,0,0,0-.07.69,6.32,6.32,0,0,0,1.2,4.21l11.5,15.56,24.56,33.22c.06.08.14.14.21.22a6.56,6.56,0,0,0,.67.72c.13.11.26.22.4.32a5.08,5.08,0,0,0,.75.49l.42.23a6.74,6.74,0,0,0,1,.34l.34.11a5.5,5.5,0,0,0,.69.11h0a5.34,5.34,0,0,0,.69.05h0a5.65,5.65,0,0,0,.58,0l.57-.08c.12,0,.24-.06.36-.09a5.94,5.94,0,0,0,.75-.23l.39-.16a5.93,5.93,0,0,0,.65-.36,4.05,4.05,0,0,0,.35-.21l.13-.08c.12-.09.21-.2.32-.29s.35-.3.51-.46.26-.31.39-.47a6,6,0,0,0,.37-.51,4.63,4.63,0,0,0,.29-.54,5.69,5.69,0,0,0,.26-.56,5.8,5.8,0,0,0,.19-.59c0-.2.11-.4.15-.6s0-.46.07-.69a6.38,6.38,0,0,0-1.21-4.21Z"/><path class="cls-2" d="M94.65,48.9c-6.66,0-13.82-4.11-13.82-13.14V6.38a6.38,6.38,0,1,0-12.75,0V35.76c0,16.82,13.69,25.89,26.57,25.89a6.38,6.38,0,0,0,0-12.75Z"/><path class="cls-2" d="M182.88,48.9H146.73a6.38,6.38,0,0,0,0,12.75h36.15a6.38,6.38,0,0,0,0-12.75Z"/><path class="cls-2" d="M250.91,48.9H214.77a6.38,6.38,0,1,0,0,12.75h36.14a6.38,6.38,0,0,0,0-12.75Z"/><path class="cls-2" d="M86.65,93a6.38,6.38,0,1,0-5-11.75C72.23,85.28,67,93.43,67,104.23V119c0,10.8,5.22,19,14.69,22.94a6.21,6.21,0,0,0,2.47.51,6.38,6.38,0,0,0,2.49-12.25c-4.71-2-6.9-5.54-6.9-11.2V104.23C79.76,98.58,82,95,86.65,93Z"/><path class="cls-2" d="M214.77,80.79a6.38,6.38,0,0,0-6.38,6.37v48.9a6.38,6.38,0,1,0,12.75,0V87.16A6.37,6.37,0,0,0,214.77,80.79Z"/><path class="cls-2" d="M146.73,80.79a6.37,6.37,0,0,0-6.37,6.37v48.9a6.38,6.38,0,1,0,12.75,0V87.16A6.38,6.38,0,0,0,146.73,80.79Z"/><path class="cls-2" d="M6.42,61.65a6.38,6.38,0,0,0,6.37-6.38V6.38A6.38,6.38,0,1,0,0,6.38V32.51c0,.15,0,.29,0,.44s0,.29,0,.44V55.27A6.38,6.38,0,0,0,6.42,61.65Z"/></g></g></g></svg>